/* XPM */
static char *cc728e3bc159401d95c57dc1a05c98d1[] = {
/* columns rows colors chars-per-pixel */
"64 64 234 2 ",
"   c #008E34",
".  c #008D3D",
"X  c #02913B",
"o  c #0B9539",
"O  c #119635",
"+  c #12973C",
"@  c #14993D",
"#  c #1B9B3B",
"$  c #249F3B",
"%  c #289F39",
"&  c #2BA137",
"*  c #25A03C",
"=  c #2BA13B",
"-  c #39A637",
";  c #33A43B",
":  c #3AA639",
">  c #3DA83D",
",  c #43A931",
"<  c #4AAC37",
"1  c #43AA3B",
"2  c #4CAD3C",
"3  c #51AE37",
"4  c #50AF3D",
"5  c #57B137",
"6  c #5AB336",
"7  c #54B13D",
"8  c #5BB33C",
"9  c #7BBD2F",
"0  c #64B636",
"q  c #69B737",
"w  c #6DB936",
"e  c #64B63C",
"r  c #6AB93C",
"t  c #73BB36",
"y  c #7ABE36",
"u  c #74BD3C",
"i  c #7BBF3A",
"p  c #7FC035",
"a  c #79CF31",
"s  c #7EC13E",
"d  c #7CD335",
"f  c #7FD23A",
"g  c #008E40",
"h  c #049344",
"j  c #0B9644",
"k  c #0F9842",
"l  c #149A44",
"z  c #1B9C44",
"x  c #1B9D53",
"c  c #239F43",
"v  c #26A045",
"b  c #2AA143",
"n  c #26A14B",
"m  c #28A14C",
"M  c #33A543",
"N  c #39A742",
"B  c #3EA942",
"V  c #31A54F",
"C  c #2BA55D",
"Z  c #3CAB63",
"A  c #44AB42",
"S  c #4DAE42",
"D  c #54B141",
"F  c #5BB441",
"G  c #52B14B",
"H  c #44AD55",
"J  c #4EB051",
"K  c #4DB15B",
"L  c #56B353",
"P  c #5DB654",
"I  c #51B25B",
"U  c #5BB65C",
"Y  c #5EB85E",
"T  c #61B641",
"R  c #65B841",
"E  c #6CBA40",
"W  c #61B74C",
"Q  c #68B94E",
"!  c #75BE40",
"~  c #7ABF41",
"^  c #76BF4F",
"/  c #63B955",
"(  c #6EBC52",
")  c #64BA5D",
"_  c #6ABC58",
"`  c #74BF5B",
"'  c #44AE66",
"]  c #4AB167",
"[  c #4BB26C",
"{  c #55B462",
"}  c #5AB764",
"|  c #55B66E",
" . c #58B769",
".. c #53B570",
"X. c #5FBB78",
"o. c #6DBE61",
"O. c #64BC69",
"+. c #69BD6D",
"@. c #70BF67",
"#. c #6ABE74",
"$. c #7CC040",
"%. c #77C056",
"&. c #7FC352",
"*. c #76C059",
"=. c #7DC469",
"-. c #6EC071",
";. c #6CC07B",
":. c #74C374",
">. c #7BC573",
",. c #74C37C",
"<. c #7EC77C",
"1. c #80C037",
"2. c #81C23D",
"3. c #81D43D",
"4. c #83D93D",
"5. c #8CC643",
"6. c #82C34C",
"7. c #8BC64B",
"8. c #8FC84F",
"9. c #92C94E",
"0. c #85D643",
"q. c #88D746",
"w. c #86DA40",
"e. c #88DA45",
"r. c #89D54A",
"t. c #8DDB4C",
"y. c #8FC851",
"u. c #87C758",
"i. c #8DC959",
"p. c #99CD5B",
"a. c #8ED752",
"s. c #8FD952",
"d. c #91DD53",
"f. c #95DB5B",
"g. c #99DE5F",
"h. c #95E058",
"j. c #9BE35F",
"k. c #84C660",
"l. c #8BC964",
"z. c #85C76A",
"x. c #97CF6F",
"c. c #98CF6C",
"v. c #9ED166",
"b. c #97DB60",
"n. c #9BDD64",
"m. c #9FDE6B",
"M. c #83C975",
"N. c #8FCC71",
"B. c #81C778",
"V. c #85CA7F",
"C. c #8FCE7B",
"Z. c #90CD75",
"A. c #92CE7A",
"S. c #9DD378",
"D. c #A0D166",
"F. c #A2D36D",
"G. c #A1DE6E",
"H. c #A3D572",
"J. c #A3DF71",
"K. c #A4D67E",
"L. c #ABD87C",
"P. c #9DE163",
"I. c #A2E26C",
"U. c #A5E273",
"Y. c #A8E575",
"T. c #ABE47B",
"R. c #AEEB7B",
"E. c #B0EB7F",
"W. c #75C486",
"Q. c #7EC886",
"!. c #77C688",
"~. c #82C982",
"^. c #8BCE86",
"/. c #82CA8B",
"(. c #8BCF8E",
"). c #8FD08D",
"_. c #9ED485",
"`. c #95D189",
"'. c #98D38D",
"]. c #92D294",
"[. c #9BD594",
"{. c #95D398",
"}. c #A4D783",
"|. c #AEDA82",
" X c #A0D68A",
".X c #ACDB8E",
"XX c #B1DC81",
"oX c #A4D893",
"OX c #ABDB95",
"+X c #A6DA9B",
"@X c #ADDD9C",
"#X c #B2DF9E",
"$X c #B2EA83",
"%X c #B6ED89",
"&X c #B8EF8A",
"*X c #B5F284",
"=X c #BAF38C",
"-X c #B7E093",
";X c #BBE195",
":X c #B5E09A",
">X c #BEE49D",
",X c #BEF492",
"<X c #ABDDA2",
"1X c #B1DFA2",
"2X c #B4E1A4",
"3X c #BBE4A5",
"4X c #BBE4AB",
"5X c #C6E79F",
"6X c #C0F695",
"7X c #C2F994",
"8X c #C5F79C",
"9X c #C5F99A",
"0X c #C8F89F",
"qX c #C3E6A2",
"wX c #C6E8A6",
"eX c #C2E7AA",
"rX c #C4E8AD",
"tX c #CAEBAE",
"yX c #CBFAA4",
"uX c #CEFAAA",
"iX c #D1FAAE",
"pX c #C1E7B4",
"aX c #C7EAB0",
"sX c #CBECB0",
"dX c #D1EFB4",
"fX c #D1EEB9",
"gX c #D4F2B6",
"hX c #D9F2B7",
"jX c #D3F9B3",
"kX c #D4F2BA",
"lX c #DAF2BA",
"zX c #DDF5C1",
"xX c #E2F6C3",
"cX c None",
/* pixels */
"cXcXcXcXcXcXcXcXcXcXcXcXcXcXcXcXcXcXcXcXcXcXcXcXcXcXcXcXcXcXcXcXcXcXcXcXcXcXcXcXcXcXcXcXcXcXcXcXcXcXcXcXcXcXcXcXcXcXcXcXcXcXcXcX",
"cXcXcXcXcXcXcXcXcXcXcXcXcXcXcXcXcXcXcXcXcXcXcXcXs.n.U.$X,X8X8X8X8X7X&XJ.m.f.0.cXcXcXcXcXcXcXcXcXcXcXcXcXcXcXcXcXcXcXcXcXcXcXcXcX",
"cXcXcXcXcXcXcXcXcXcXcXcXcXcXcXcXcXcXcXcX4.P.$X9XiXlXkXfXfXsXfXsXfXdXfXkXkXjXyX=XU.t.cXcXcXcXcXcXcXcXcXcXcXcXcXcXcXcXcXcXcXcXcXcX",
"cXcXcXcXcXcXcXcXcXcXcXcXcXcXcXcXcXcXt.T.yXkXfXfXsXsXaXtXsXsXsXsXaXaXsXsXsXaXfXfXkXiX=Xn.cXcXcXcXcXcXcXcXcXcXcXcXcXcXcXcXcXcXcXcX",
"cXcXcXcXcXcXcXcXcXcXcXcXcXcXcXcXt.$XjXkXsXsXsXsXsXsXsXsXsXsXsXsXsXsXsXsXsXsXsXsXsXsXdXjX9XP.cXcXcXcXcXcXcXcXcXcXcXcXcXcXcXcXcXcX",
"cXcXcXcXcXcXcXcXcXcXcXcXcXcX4.Y.jXkXsXsXsXsXsXsXsXsXsXsXsXsXsXsXsXaXsXtXsXsXsXsXsXsXsXsXfXkX,Xd.cXcXcXcXcXcXcXcXcXcXcXcXcXcXcXcX",
"cXcXcXcXcXcXcXcXcXcXcXcXcXf.yXkXsXsXsXsXsXsXtXsXsXsXsXsXsXsXsXsXsXsXsXsXsXsXsXsXsXsXsXsXsXsXdXjXU.cXcXcXcXcXcXcXcXcXcXcXcXcXcXcX",
"cXcXcXcXcXcXcXcXcXcXcXcXU.jXfXsXsXsXsXsXsXsX|.sXsXsXsXsXsXsXsXsXsXsXsXsXtXsXsXsXsXsXsXsXsXsXsXsXlX,Xe.cXcXcXcXcXcXcXcXcXcXcXcXcX",
"cXcXcXcXcXcXcXcXcXcXd &XkXsXsXsXsXtXsXsXsXtX8.>XsXsXsXsXsXsXsXsXsXsXsXsXsXsXtXsXsXtXsXsXsXtXsXsXsXdXuXd.cXcXcXcXcXcXcXcXcXcXcXcX",
"cXcXcXcXcXcXcXcXcX4.7XkXsXsXsXsXsXsXsXsXsX5Xs F.kXsXsXsXsXsXtXsXsXsXsXsXsXsXsXsXsXsXsXsXsXsXsXsXsXsXfXiXh.cXcXcXcXcXcXcXcXcXcXcX",
"cXcXcXcXcXcXcXcXd 7XkXsXsXsXsXsXsXsXsXsXfX;Xp $.qXfXsXsXsXsXsXsXsXsXsXsXtXsXsXsXsXsXsXtXtXsXsXsXsXsXsXsXjXh.cXcXcXcXcXcXcXcXcXcX",
"cXcXcXcXcXcXcXa ,XkXaXsXsXsXsXsXsXtXsXsXfXXXp p i.sXsXtXsXsXsXsXsXsXsXsXsXsXsXsXsXsXsXsXsXsXsXtXsXsXsXsXfXiXt.cXcXcXcXcXcXcXcXcX",
"cXcXcXcXcXcXcXR.kXsXsXsXsXsXsXsXsXsXsXsXkXH.p 2.t c.kXsXtXsXsXsXsXsXsXsXsXsXsXtXtXsXsXsXsXsXsXsXsXsXsXsXtXfXyXf cXcXcXcXcXcXcXcX",
"cXcXcXcXcXcXP.kXsXsXtXsXsXsXsXsXsXsXsXsXfXD.1.s $.w x.fXfXsXsXtXsXtXsXtXsXtXsXsXsXsXsXtXtXsXsXsXsXsXsXsXsXsXfX=XcXcXcXcXcXcXcXcX",
"cXcXcXcXcX0.iXsXsXsXtXsXsXtXsXsXsXsXsXsXfXp.p s $.u q l.tXdXtXtXsXsXsXsXsXsXsXsXsXsXsXsXsXsXsXsXtXsXsXsXtXsXsXkXI.cXcXcXcXcXcXcX",
"cXcXcXcXcX&XkXsXsXsXsXsXsXsXsXsXsXsXsXsXtX7.s 5.$.! ! q ^ #XkXfXtXsXsXsXsXsXtXsXsXtXsXsXsXsXtXsXsXsXsXtXsXsXsXfXiXq.cXcXcXcXcXcX",
"cXcXcXcXg.kXsXsXsXtXsXsXsXtXtXsXsXsXsXsXsX7.2.2.$.~ u E e e Z.aXhXsXsXsXsXsXsXsXtXsXsXsXsXsXsXsXsXtXsXsXsXsXtXsXfX=XcXcXcXcXcXcX",
"cXcXcXcX7XfXsXsXsXsXsXsXsXsXsXsXsXsXsXsXwX5.s 5.$.! ! E E e 5 Q _.fXkXsXsXtXsXsXsXsXsXsXsXtXsXsXsXsXsXsXsXsXsXsXsXjXs.cXcXcXcXcX",
"cXcXcXg.jXsXsXsXsXsXsXsXsXsXtXsXsXsXsXsXqX5.2.2.$.! ! ! E R T 8 2 _ oXdXdXsXtXsXsXsXsXsXsXsXsXsXsXsXtXsXsXtXtXsXsXfX=XcXcXcXcXcX",
"cXcXcX7XfXsXsXsXsXsXtXsXsXsXsXsXtXsXsXsX5X5.2.s ~ ! ! E R R T F F 2 2 ) oXdXhXsXsXsXtXsXsXsXsXsXsXtXsXsXsXsXsXsXsXsXjXa.cXcXcXcX",
"cXcXa.jXaXsXsXaXtXsXsXsXsXsXsXsXsXsXsXsXqX5.2.2.$.~ ! E E R R F D D S 1 > ) oXfXhXsXsXtXsXsXsXtXsXtXsXtXsXsXtXsXsXsXkXU.cXcXcXcX",
"cXcXJ.kXsXsXsXsXsXsXsXsXsXtXsXsXsXsXsXdXqX2.2.2.$.u ! E E R T F F D S S A : ; U [.kXhXsXsXsXsXsXsXsXsXsXsXsXsXsXsXaXfX0Xf cXcXcX",
"cXcX9XdXsXsXsXsXsXsXsXtXsXsXsXsXsXsXsXdXqX5.2.2.~ ~ ! E E T T F F D S S A A B ; = } @XlXdXtXsXsXsXsXsXtXtXsXsXsXsXsXsXjXf.cXcXcX",
"cXr.jXsXsXsXsXsXsXsXsXsXsXsXsXsXsXtXsXdXwX5.2.5.~ ! ! E E R T 8 7 7 S S A A B N M $ c #.rXlXsXsXsXtXsXsXsXsXtXsXsXsXsXkXJ.cXcXcX",
"cXn.kXsXsXsXsXsXsXsXsXsXsXsXsXsXsXtXsXsXtX5.2.2.~ ! ! E E T T ` W < S S A A B N M M b # V [.lXdXtXsXsXsXsXtXsXsXsXsXsXfX=XcXcXcX",
"cXT.kXsXsXsXsXsXsXtXsXsXsXsXsXsXsXsXsXsXtX9.2.2.$.~ ! E E R 8 ` OXC.4 1 A A B N M M b b # k #.hXdXsXsXsXsXsXsXsXsXsXsXsXuX0.cXcX",
"cX&XfXaXsXsXsXsXsXsXsXtXsXsXsXsXsXsXsXsXdXp.1.$.$.u ! E E T T 5 F :X4XP - A B N M M b v c z o [ sXdXsXsXsXsXtXsXsXsXsXsXiXa.cXcX",
"cX8XfXsXsXsXsXsXtXsXsXsXsXsXsXsXsXsXkXkXkXF.1.2.$.~ ! E E R T T 4 4 @XkX@.; B N M M b v c z z X ] dXsXsXtXsXsXsXsXsXsXsXjXf.cXcX",
"cXuXdXsXsXsXsXsXsXsXsXtXsXsXtXsXkX4X_.=.rXXX1.2.$.~ ! E E R T F D 4 2 @XzX>.; ; M M b b n z z l X X.lXsXsXsXsXsXsXsXsXsXkXm.cXcX",
"0.iXsXaXsXsXsXsXsXsXsXsXsXsXkXrXN.R 3 , oX5X1.s $.! ! E r R T F F D 2 S 3XxXB.& M M b b c z z l k X {.jXsXsXsXsXsXsXsXsXkXG.cXcX",
"r.iXsXtXsXsXaXsXsXsXsXsXsXkX.XE 6 8 F 2 M.dX7.s $.~ ! E E R T F D D S 1 U fXlX:.% M b b c z z l k . C dXsXsXsXsXsXsXsXsXkXG.cXcX",
"q.iXfXtXsXsXsXsXsXtXsXsXdXK.q e R F F 4 / kXv.y $.! ! E E T T F F D D S - B.lXkXO.$ b b c z z z k j . ].hXsXsXsXsXsXsXsXkXG.cXcX",
"0.iXsXsXsXsXsXsXsXaXtXkX|.w r E T T F 7 2 1X;Xi ~ ~ ! E E R T T D D S S A > @XlXaXH $ b c z z l j j g [ lXtXsXsXsXsXsXsXkXG.cXcX",
"cXuXdXaXsXtXsXtXsXtXfX-Xu u E R R F F D 1 M.hX7.i ! ! E E R T F F D S S A ; Y kXlX1Xb c c c z z l j h x aXdXtXsXsXsXsXsXkXn.cXcX",
"cX8XdXtXsXtXsXsXsXsXsXu.u u ! E R F F D 2 G dXK.t ! ! E E T T F F D S S A > ; [.hXlX~.# c z z l l j h h <XdXsXtXsXsXsXsXjXf.cXcX",
"cX%XfXsXsXsXsXsXsXkXL.y $.! E R R T F D S > `.dX6.u ! E r R T F D D D S S A ; U fXsXsXH # z z l l j h g ].hXsXsXsXtXsXsXjXr.cXcX",
"cXU.kXaXsXsXsXsXsXsXy.i $.u E E R T F D S 1 L fXF.t ! E E T T F F D S S A A B = +XgXhX).# z z l l j h g /.lXsXsXsXsXtXfXyXcXcXcX",
"cXb.lXsXsXsXsXsXdX;Xi 5.u u r r R F F D S A : '.sX~ u E E R T F D D S S A A A & -.gXdXrXV l z z l j h . W.lXsXsXtXsXsXfX%XcXcXcX",
"cXr.iXsXsXsXsXaXdXL.9 i 6.u.&.E 8 8 F D S S > J fXK.q E E R T T F D S S A A B M H aXsXlX .+ z l l j h g /.lXtXtXsXsXsXkXG.cXcXcX",
"cXcX,XfXsXsXsXaXdXp.7.-XsXsXsXeX}.( < 7 S S A ; ~.zX6.q E e T F D D S S A A B N M +XgXlX~.+ z l j j j h ].hXsXsXsXsXsXjXa.cXcXcX",
"cXcXm.kXsXtXaXsXrXF.tXhXsXsXsXdXkXdXA.7 2 A A > N 4X>Xr e R T F F D D S A A B N = ^.lXkX[.@ z l k j h h 1XdXsXsXsXsXfX8XcXcXcXcX",
"cXcXr.iXfXtXsXsXsXrXsXsXsXsXsXsXsXaXkXOXG 1 A B ; { zXS.0 R R F D D S S A A B N * :.kXdX1Xz z l k j X C dXsXsXsXsXsXkXI.cXcXcXcX",
"cXcXcX=XfXsXsXsXtXsXsXtXsXsXsXsXsXsXaXlX3XG : A N $ Q.zXk.6 T F D D S S S B B N & +.kXdX4Xn l l k l X W.lXsXsXtXtXaXiXr.cXcXcXcX",
"cXcXcXs.jXsXsXsXsXsXsXsXsXsXsXsXsXsXsXsXhX3XL ; N M * [.lX` 6 F F D S S A A B N & O.hXdX3Xn z z k h x eXdXsXsXsXsXkXE.cXcXcXcXcX",
"cXcXcXcX,XfXaXsXtXsXsXsXsXsXsXsXsXsXtXsXaXhXrXU & M = v <XlX*.3 D D S S A A B N * -.kXdX3Xm l l k X /.lXtXsXsXsXsXjXr.cXcXcXcXcX",
"cXcXcXcXa.jXsXsXsXsXsXsXsXtXsXsXsXsXsXsXaXsXdXfX:.= * $ n +XlXz.3 4 S S A A B N & ~.hXdX3Xc # l X ..lXsXsXsXsXtXkXR.cXcXcXcXcXcX",
"cXcXcXcXcXR.kXsXsXsXsXtXsXsXsXsXsXsXsXsXsXsXtXsXkX+XK # O @ (.xX.XW 1 > 1 B B M = +XkXgX+Xz l X ' fXdXsXsXsXsXfXyXf cXcXcXcXcXcX",
"cXcXcXcXcXf yXfXsXsXsXsXsXsXsXsXtXsXsXsXsXsXsXsXtXlXdX[.{ z   ' 4XdX Xo.G A N ; I aXsXlX].+ o | fXdXsXsXsXsXsXkXn.cXcXcXcXcXcXcX",
"cXcXcXcXcXcXd.jXsXsXsXsXtXsXsXsXsXtXsXsXsXtXsXtXsXsXsXkXkX2X/.] Z !.pXlXeX:X@X@XrXsXsXlX,.+ Q.hXsXsXsXsXsXsXkXR.cXcXcXcXcXcXcXcX",
"cXcXcXcXcXcXcXI.lXsXsXsXsXsXtXsXsXsXsXsXsXsXsXsXsXsXsXsXsXdXlXlXsX1X4XsXdXdXdXdXsXsXsXsX(.+XhXsXsXsXsXsXtXfX9Xa cXcXcXcXcXcXcXcX",
"cXcXcXcXcXcXcXcXR.kXsXtXsXtXsXsXsXsXsXsXsXtXsXsXsXtXsXsXsXsXsXsXsXdXsXsXsXsXsXsXsXsXsXtXdXhXsXsXsXsXsXtXfXyX0.cXcXcXcXcXcXcXcXcX",
"cXcXcXcXcXcXcXcXcX*XzXtXsXsXsXsXsXtXsXsXsXsXsXsXsXsXsXsXtXsXsXsXsXtXsXsXsXsXsXsXsXsXsXsXsXsXsXsXtXsXsXfXyXt.cXcXcXcXcXcXcXcXcXcX",
"cXcXcXcXcXcXcXcXcXcX*XkXsXsXsXsXsXsXsXsXsXsXtXsXsXsXsXsXsXsXsXsXtXsXsXtXsXsXsXsXsXsXsXsXsXsXsXsXsXsXkXyXe.cXcXcXcXcXcXcXcXcXcXcX",
"cXcXcXcXcXcXcXcXcXcXcXY.kXfXsXsXtXsXsXtXtXsXsXsXsXtXsXsXtXsXsXtXsXsXsXsXsXsXsXsXsXsXsXsXsXsXsXsXsXkX9X0.cXcXcXcXcXcXcXcXcXcXcXcX",
"cXcXcXcXcXcXcXcXcXcXcXcXj.uXfXsXtXtXsXsXsXsXtXsXsXsXsXsXsXsXsXsXsXtXsXsXsXsXsXsXsXsXsXsXsXsXsXfXjXR.d cXcXcXcXcXcXcXcXcXcXcXcXcX",
"cXcXcXcXcXcXcXcXcXcXcXcXcXe.,XkXdXtXsXtXsXsXsXsXsXsXsXtXsXsXsXsXsXsXsXsXsXsXsXsXsXsXsXsXsXsXkXyXP.cXcXcXcXcXcXcXcXcXcXcXcXcXcXcX",
"cXcXcXcXcXcXcXcXcXcXcXcXcXcXcXP.yXkXdXsXsXsXsXsXsXsXsXsXsXsXsXsXsXsXsXsXsXsXsXsXaXsXsXfXfXjXR.0.cXcXcXcXcXcXcXcXcXcXcXcXcXcXcXcX",
"cXcXcXcXcXcXcXcXcXcXcXcXcXcXcXcX4.U.yXkXfXsXsXsXsXsXtXsXsXsXsXsXsXsXsXsXsXsXsXsXaXdXkXjX$Xd.cXcXcXcXcXcXcXcXcXcXcXcXcXcXcXcXcXcX",
"cXcXcXcXcXcXcXcXcXcXcXcXcXcXcXcXcXcX4.P.,XjXkXfXsXsXsXsXsXsXaXsXsXsXsXsXsXsXfXfXjX0XY.t.cXcXcXcXcXcXcXcXcXcXcXcXcXcXcXcXcXcXcXcX",
"cXcXcXcXcXcXcXcXcXcXcXcXcXcXcXcXcXcXcXcXcXd.I.%XyXjXlXkXkXfXfXfXfXfXfXjXjXiX,XU.g.cXcXcXcXcXcXcXcXcXcXcXcXcXcXcXcXcXcXcXcXcXcXcX",
"cXcXcXcXcXcXcXcXcXcXcXcXcXcXcXcXcXcXcXcXcXcXcXcXw.s.b.U.T.$X$X$X$X$XU.m.f.r.cXcXcXcXcXcXcXcXcXcXcXcXcXcXcXcXcXcXcXcXcXcXcXcXcXcX",
"cXcXcXcXcXcXcXcXcXcXcXcXcXcXcXcXcXcXcXcXcXcXcXcXcXcXcXcXcXcXcXcXcXcXcXcXcXcXcXcXcXcXcXcXcXcXcXcXcXcXcXcXcXcXcXcXcXcXcXcXcXcXcXcX",
"cXcXcXcXcXcXcXcXcXcXcXcXcXcXcXcXcXcXcXcXcXcXcXcXcXcXcXcXcXcXcXcXcXcXcXcXcXcXcXcXcXcXcXcXcXcXcXcXcXcXcXcXcXcXcXcXcXcXcXcXcXcXcXcX",
"cXcXcXcXcXcXcXcXcXcXcXcXcXcXcXcXcXcXcXcXcXcXcXcXcXcXcXcXcXcXcXcXcXcXcXcXcXcXcXcXcXcXcXcXcXcXcXcXcXcXcXcXcXcXcXcXcXcXcXcXcXcXcXcX"
};
