/* XPM */
static char *fc86789613864094fba9ae5813a4401e[] = {
/* columns rows colors chars-per-pixel */
"32 32 168 2 ",
"   c #008F33",
".  c #008F39",
"X  c #06943F",
"o  c #0C953C",
"O  c #169835",
"+  c #14983B",
"@  c #1A9A38",
"#  c #229D34",
"$  c #249E3E",
"%  c #2DA23B",
"&  c #31A235",
"*  c #3FA836",
"=  c #32A33C",
"-  c #3BA63B",
";  c #3EA83D",
":  c #47AA33",
">  c #4BAC37",
",  c #42AA3B",
"<  c #4CAD3B",
"1  c #51AF3B",
"2  c #55B036",
"3  c #58B136",
"4  c #54B13F",
"5  c #5CB33D",
"6  c #64B536",
"7  c #69B736",
"8  c #6FB934",
"9  c #64B63C",
"0  c #67B83F",
"q  c #6EBB3D",
"w  c #72BB35",
"e  c #7DBF36",
"r  c #75BD3A",
"t  c #7CBF3C",
"y  c #029243",
"u  c #0C9643",
"i  c #159A42",
"p  c #1A9B44",
"a  c #139A4D",
"s  c #1D9E4B",
"d  c #229E44",
"f  c #209F4F",
"g  c #209F54",
"h  c #2BA143",
"j  c #28A14B",
"k  c #34A544",
"l  c #3EA942",
"z  c #39A748",
"x  c #3BA84A",
"c  c #43AB41",
"v  c #4CAF42",
"b  c #43AC4A",
"n  c #4BAF4C",
"m  c #4FB048",
"M  c #56B241",
"N  c #5EB541",
"B  c #50B14C",
"V  c #43AD5B",
"C  c #4CB15C",
"Z  c #55B45C",
"A  c #5CB75C",
"S  c #62B641",
"D  c #69B940",
"F  c #6ABA4D",
"G  c #71BC41",
"H  c #7ABF41",
"J  c #6BBD5C",
"K  c #52B565",
"L  c #5AB760",
"P  c #54B671",
"I  c #69BE6D",
"U  c #67BE72",
"Y  c #62BD79",
"T  c #7FC145",
"R  c #7FC356",
"E  c #77C058",
"W  c #75C162",
"Q  c #7CC467",
"!  c #7AC56F",
"~  c #6DC073",
"^  c #6BC07D",
"/  c #72C274",
"(  c #7AC677",
")  c #74C47C",
"_  c #79C67F",
"`  c #7FC87B",
"'  c #81C13D",
"]  c #86C340",
"[  c #83C450",
"{  c #8FC951",
"}  c #95CC56",
"|  c #87C96C",
" . c #9BDC64",
".. c #9FDC6B",
"X. c #84CA7A",
"o. c #89CB78",
"O. c #9DD276",
"+. c #9BD279",
"@. c #A1D36F",
"#. c #A0DD6E",
"$. c #A2D472",
"%. c #A8D773",
"&. c #A4DF74",
"*. c #A0D57D",
"=. c #A7DF79",
"-. c #ACD87A",
";. c #A3E36D",
":. c #A5E275",
">. c #A8E377",
",. c #A6E078",
"<. c #AAE17C",
"1. c #84CB82",
"2. c #8BCE8A",
"3. c #97D283",
"4. c #9FD583",
"5. c #9ED588",
"6. c #9BD69A",
"7. c #ACDA81",
"8. c #A2D78F",
"9. c #AEDC8A",
"0. c #B3DD87",
"q. c #B5DE89",
"w. c #A5D991",
"e. c #AEDC93",
"r. c #A4DA9D",
"t. c #ABDD9C",
"y. c #B1DF9E",
"u. c #AFE982",
"i. c #B1E784",
"p. c #B0E883",
"a. c #B3E28B",
"s. c #B5EA8A",
"d. c #B7E492",
"f. c #B8E592",
"g. c #BBEC93",
"h. c #BEE49A",
"j. c #BEEC99",
"k. c #ACDEA1",
"l. c #B5E1A3",
"z. c #BDE4A3",
"x. c #BEE6AB",
"c. c #C0E59C",
"v. c #C2ED9E",
"b. c #C1E6A5",
"n. c #C5E8A7",
"m. c #C2E7AB",
"M. c #C4E8AC",
"N. c #CAEBAF",
"B. c #C7F2A4",
"V. c #CAF6A6",
"C. c #CDF7AA",
"Z. c #CEF9AB",
"A. c #D1FCAE",
"S. c #CBECB1",
"D. c #D1EFB4",
"F. c #D1EFB9",
"G. c #D5F1B6",
"H. c #D8F2B7",
"J. c #D5FDB4",
"K. c #D8FFB7",
"L. c #D4F3BB",
"P. c #DAF3BB",
"I. c #D7FABB",
"U. c #DAFDBC",
"Y. c #E0F5BF",
"T. c #DCFEC0",
"R. c #E3F7C1",
"E. c None",
/* pixels */
"E.E.E.E.E.E.E.E.E.E.E.E.E.E.<.,.,.:.E.E.E.E.E.E.E.E.E.E.E.E.E.E.",
"E.E.E.E.E.E.E.E.E.E.s.B.J.K.I.I.U.K.J.B.s.;.E.E.E.E.E.E.E.E.E.E.",
"E.E.E.E.E.E.E.E.g.K.I.F.S.S.S.S.S.N.D.D.L.U.j.;.E.E.E.E.E.E.E.E.",
"E.E.E.E.E.E.<.J.L.S.N.n.S.S.S.S.S.S.S.N.S.N.L.K.s.E.E.E.E.E.E.E.",
"E.E.E.E.E.s.T.D.S.D.z.@.F.S.S.S.S.N.S.N.S.S.S.N.T.j.E.E.E.E.E.E.",
"E.E.E.E.s.T.S.S.S.D.h.e d.F.S.S.S.S.S.S.S.S.S.N.N.I.j.E.E.E.E.E.",
"E.E.E.<.T.N.S.S.S.F.q.e H z.L.S.N.S.N.N.S.S.S.S.S.N.I.s.E.E.E.E.",
"E.E. .K.D.N.S.S.S.F.7.' r G 9.L.D.S.S.S.N.S.S.S.S.S.D.U.,.E.E.E.",
"E.E.g.L.N.S.S.S.S.F.%.e H q 5 | b.L.D.S.S.S.S.S.S.N.S.D.C.E.E.E.",
"E...U.S.S.N.S.N.S.F.%.e H G 0 2 M o.b.H.D.S.S.S.S.S.N.N.U.<.E.E.",
"E.a.L.D.S.S.S.S.S.F.%.e t q D N M , n ` x.G.S.S.S.S.S.S.F.v.E.E.",
"E.V.D.N.S.N.S.S.S.F.%.e T G D N 1 v , % x 1.D.L.N.N.S.S.S.K.E.E.",
"E.K.S.S.S.S.S.S.S.F.-.e T G S F Q v ; l % @ V l.H.S.S.S.S.U.<.E.",
"&.T.S.S.S.N.S.S.L.L.q.e H G D 5 W 8.B = k h + s t.G.N.S.S.L.a.E.",
"<.I.S.S.S.N.S.D.4.W 9.] t G D N < W z.n % h d o f x.D.S.S.L.f.E.",
"<.L.S.S.N.D.m.R 2 : 5.} r G D N M * X.M.z $ d p . Y P.S.S.L.f.E.",
"<.I.S.S.S.N.[ 6 S 1 ! %.w G 0 N M v - l.t.$ p p y g S.D.N.L.f.E.",
"&.I.S.S.D.O.8 q S M m e.T r 0 N M v - A R.U + p u u k.D.N.P.a.E.",
"E.K.S.S.n.' 8 6 5 4 , X.$.7 0 N 4 v c = y.M.d p u y 6.G.D.U.<.E.",
"E.C.D.F.0.{ 7.*.E 1 , b t.T 0 S M v c % ( R.C o u y r.G.S.J.E.E.",
"E.a.L.S.h.N.L.L.D.+.c & I 9.3 5 M v c = A R.U o X a x.D.F.j.E.E.",
"E...K.S.D.S.N.N.D.L.w.l # 2.O.3 5 v c = C P.) o . P P.N.U.=.E.E.",
"E.E.f.L.N.S.S.S.N.S.P.t.b O 2.O.1 , c % Z P.)   s x.D.L.V.E.E.E.",
"E.E.E.K.S.S.S.S.S.S.S.G.N./ j ^ 3.J n = X.R.K i t.G.S.U...E.E.E.",
"E.E.E.,.U.D.N.S.S.S.S.S.D.L.m.2.6.S.b.l.S.S._ y.L.N.T.i.E.E.E.E.",
"E.E.E.E.p.T.S.S.S.S.S.S.S.S.S.G.D.S.D.D.S.S.F.D.S.I.g.E.E.E.E.E.",
"E.E.E.E.E.p.U.D.S.S.S.S.S.S.S.S.S.S.S.S.S.S.S.D.T.g.E.E.E.E.E.E.",
"E.E.E.E.E.E.>.A.L.S.N.N.S.S.S.S.S.S.N.S.S.S.L.K.p.E.E.E.E.E.E.E.",
"E.E.E.E.E.E.E.E.s.J.T.F.S.S.S.S.S.S.S.F.I.K.g.E.E.E.E.E.E.E.E.E.",
"E.E.E.E.E.E.E.E.E.E.p.j.Z.K.U.K.U.K.A.j.s.E.E.E.E.E.E.E.E.E.E.E.",
"E.E.E.E.E.E.E.E.E.E.E.E.E.E.>.<.,.:.E.E.E.E.E.E.E.E.E.E.E.E.E.E.",
"E.E.E.E.E.E.E.E.E.E.E.E.E.E.E.E.E.E.E.E.E.E.E.E.E.E.E.E.E.E.E.E."
};
