/* XPM */
static char *_a5973509165444fbc143b79de6d415f[] = {
/* columns rows colors chars-per-pixel */
"16 16 168 2 ",
"   c #029134",
".  c #0D9539",
"X  c #1A9935",
"o  c #2FA236",
"O  c #44A935",
"+  c #4AAB32",
"@  c #46AA38",
"#  c #4BAC39",
"$  c #6BB731",
"%  c #6CB937",
"&  c #60B439",
"*  c #60B53D",
"=  c #60B53E",
"-  c #70BA37",
";  c #72BB39",
":  c #74BC3A",
">  c #039240",
",  c #129949",
"<  c #169B4A",
"1  c #31A445",
"2  c #3DA840",
"3  c #3DA841",
"4  c #3EA842",
"5  c #32A653",
"6  c #51B041",
"7  c #5CB443",
"8  c #50B150",
"9  c #55B350",
"0  c #55B352",
"q  c #63B640",
"w  c #65B843",
"e  c #61B74F",
"r  c #6BBA4A",
"t  c #61B95F",
"y  c #69BB59",
"u  c #47B062",
"i  c #48B062",
"p  c #52B466",
"a  c #55B76E",
"s  c #68BE6E",
"d  c #6CBF70",
"f  c #7FC246",
"g  c #78C052",
"h  c #75C162",
"j  c #79C361",
"k  c #74C26A",
"l  c #86C653",
"z  c #86C656",
"x  c #97CD5A",
"c  c #97CD5B",
"v  c #96CD5C",
"b  c #8ECB64",
"n  c #85C86B",
"m  c #93CD65",
"M  c #9ACF61",
"N  c #A6D675",
"B  c #ABD97E",
"V  c #87CC84",
"C  c #8BCD80",
"Z  c #89CE8B",
"A  c #9BD485",
"S  c #93D28B",
"D  c #94D289",
"F  c #9DD68F",
"G  c #A7DB98",
"H  c #B1E188",
"J  c #B5E48F",
"K  c #B6E98C",
"L  c #B5E096",
"P  c #B9E693",
"I  c #BAE495",
"U  c #B8E694",
"Y  c #BAE696",
"T  c #BCE797",
"R  c #B8E893",
"E  c #BAEA92",
"W  c #BAED92",
"Q  c #BDEA96",
"!  c #BCEB96",
"~  c #BDEA97",
"^  c #BCE799",
"/  c #BFE49C",
"(  c #BDEB98",
")  c #AEDFA2",
"_  c #B2E1A4",
"`  c #B4E1A4",
"'  c #BBE4A9",
"]  c #BEE6AC",
"[  c #C3E7A3",
"{  c #C0E6A5",
"}  c #C3EAA1",
"|  c #C3EFA0",
" . c #C1E7A8",
".. c #C7E9AA",
"X. c #C7EDA8",
"o. c #C4E8AC",
"O. c #C6E9AC",
"+. c #C7EAAD",
"@. c #C8EAAF",
"#. c #C9EAAF",
"$. c #CAEBAF",
"%. c #CAECAF",
"&. c #C5F1A1",
"*. c #C7F0A4",
"=. c #C8F1A4",
"-. c #CAF2A8",
";. c #CAF1AA",
":. c #CBF3AA",
">. c #CBF1AC",
",. c #CCF3AC",
"<. c #CEF3AF",
"1. c #CBECB0",
"2. c #CBECB1",
"3. c #CCECB1",
"4. c #CDEDB2",
"5. c #CDEEB3",
"6. c #CFEEB3",
"7. c #CFEEB5",
"8. c #D0EEB3",
"9. c #D1EEB3",
"0. c #D0EEB4",
"q. c #D1EFB4",
"w. c #D0EEB6",
"e. c #D0EEB7",
"r. c #D0EFB7",
"t. c #CFF0B5",
"y. c #D3F0B5",
"u. c #D1F1B7",
"i. c #D3F0B6",
"p. c #D3F0B7",
"a. c #D2F1B7",
"s. c #D7F1B7",
"d. c #D1F8B0",
"f. c #D3F9B5",
"g. c #D5FAB6",
"h. c #D3F0B9",
"j. c #D1F3B9",
"k. c #D7F2B9",
"l. c #D6F1BA",
"z. c #D3F4B8",
"x. c #D4F4B9",
"c. c #D5F6BA",
"v. c #D6F7BB",
"b. c #D4F0BC",
"n. c #D4F3BC",
"m. c #D7F6BF",
"M. c #DAFFBA",
"N. c #DAFFBB",
"B. c #DDFEBA",
"V. c #D8F9BD",
"C. c #D8FABD",
"Z. c #DAFBBE",
"A. c #DAFBBF",
"S. c #DBFEBF",
"D. c #DCFFBE",
"F. c #DDFFBE",
"G. c #E1FFBF",
"H. c #DCFDC1",
"J. c #DCFEC0",
"K. c #DDFFC0",
"L. c #DFFFC1",
"P. c #DFFFC6",
"I. c #E0FFC0",
"U. c #E0FFC1",
"Y. c #E0FFC2",
"T. c #EBFFC7",
"R. c #E9FFC8",
"E. c None",
/* pixels */
"E.E.E.E.E.E.! ! ! R E.E.E.E.E.E.",
"E.E.E.K ;.F.A.v.v.F.N.&.E.E.E.E.",
"E.E.R U.n.B [ r.$.1.1.V.d.E.E.E.",
"E.H U.3.r.v l O.l.3.1.$.v.;.E.E.",
"E.,.7.%.r.x $ r A 3.k.1.$.K.U E.",
"E.K.$.1.7.x ; * O 8 D y.8.3.,.E.",
"U v.$.r.b.M - w h 4 X p $.8.N.E.",
"^ u.r.L j m : * e C 1   a b.F.E.",
"U m./ % + n l = @ k V . , ] K.E.",
"J P.N z * 9 b & 6 4 G 5   ) F.E.",
"E.N...l./ 8 t g # o D u < j.} E.",
"E.^ H.1.j.O.s d y 4 F u Z T.E.E.",
"E.E.;.A.$.8.u.`  . .O.` R.U E.E.",
"E.E.E.&.K.b.3.u.r.u.A.U.! E.E.E.",
"E.E.E.E.W =.,.g.f.X.| E.E.E.E.E.",
"E.E.E.E.E.E.E.E.E.E.E.E.E.E.E.E."
};
